<svg id="Layer_1" data-name="Layer 1" xmlns="http://www.w3.org/2000/svg" xmlns:xlink="http://www.w3.org/1999/xlink" viewBox="0 0 553.25 197.49"><defs><style>.cls-1,.cls-7{fill:none;}.cls-2{clip-path:url(#clip-path);}.cls-3{clip-path:url(#clip-path-2);}.cls-4{fill:#fff;}.cls-5{clip-path:url(#clip-path-3);}.cls-6{clip-path:url(#clip-path-4);}.cls-7{stroke:#412999;stroke-miterlimit:10;stroke-width:0.74px;stroke-dasharray:3.71;opacity:0.5;}</style><clipPath id="clip-path"><rect class="cls-1" x="277.69" y="-3057.84" width="1497.63" height="998.79" transform="translate(2053.01 -5116.9) rotate(180)"/></clipPath><clipPath id="clip-path-2"><rect class="cls-1" x="277.69" y="-5026.02" width="1497.63" height="998.42" transform="translate(2053.01 -9053.63) rotate(180)"/></clipPath><clipPath id="clip-path-3"><rect class="cls-1" x="277.69" y="-1964.83" width="1497.63" height="998.79" transform="translate(2053.01 -2930.87) rotate(180)"/></clipPath><clipPath id="clip-path-4"><rect class="cls-1" x="-1405.2" y="-180.62" width="556.23" height="370.96" transform="translate(-2254.17 9.71) rotate(180)"/></clipPath></defs><g class="cls-3"><path class="cls-4" d="M568.42-4671.36c-943.21,323.82-1621.1,1218.54-1621.1,2271.6,0,1326.11,1075,2401.14,2401.14,2401.14s2401.14-1075,2401.14-2401.14S2674.57-4800.9,1348.46-4800.9c-272.4,0-534.21,45.36-778.28,128.94"/></g><g class="cls-6"><circle class="cls-7" cx="-169.56" cy="328.62" r="871.05"/></g><path class="cls-4" d="M98.75,21.94a76.81,76.81,0,1,0,76.8,76.81A76.81,76.81,0,0,0,98.75,21.94Zm0,142.65a65.84,65.84,0,1,1,65.82-65.84A65.84,65.84,0,0,1,98.75,164.59ZM98.75,0a98.75,98.75,0,1,0,98.74,98.75A98.75,98.75,0,0,0,98.75,0Zm0,186.53a87.78,87.78,0,1,1,87.76-87.78A87.78,87.78,0,0,1,98.75,186.53Zm0-164.59a76.81,76.81,0,1,0,76.8,76.81A76.81,76.81,0,0,0,98.75,21.94Zm0,142.65a65.84,65.84,0,1,1,65.82-65.84A65.84,65.84,0,0,1,98.75,164.59Zm0-142.65a76.81,76.81,0,1,0,76.8,76.81A76.81,76.81,0,0,0,98.75,21.94Zm0,142.65a65.84,65.84,0,1,1,65.82-65.84A65.84,65.84,0,0,1,98.75,164.59Z"/><path class="cls-4" d="M286,142.67a40.18,40.18,0,0,1-17.07-3.44,27.09,27.09,0,0,1-11.65-10Q253,122.76,253,113.35v-3.14H267.4v3.14q0,8.33,5.07,12.42T286,129.88q8.56,0,12.91-3.5a11.08,11.08,0,0,0,4.35-9,9,9,0,0,0-2.06-6.1,14.42,14.42,0,0,0-6-3.8,84.34,84.34,0,0,0-9.47-2.77l-3.62-.73a68.27,68.27,0,0,1-14.42-4.88,23.53,23.53,0,0,1-9.35-7.67c-2.17-3.13-3.26-7.24-3.26-12.3A22,22,0,0,1,269,57.72a38.64,38.64,0,0,1,15.56-2.9,39.94,39.94,0,0,1,15.93,3,24.81,24.81,0,0,1,11,9q4,6,4,15.08v4H301.18V82a15,15,0,0,0-2.05-8.32,11.86,11.86,0,0,0-5.79-4.59,24.46,24.46,0,0,0-8.81-1.45q-7.48,0-11.34,2.9a9.64,9.64,0,0,0-3.86,8.2,9.32,9.32,0,0,0,1.75,5.74,12.5,12.5,0,0,0,5.19,3.86,44.43,44.43,0,0,0,8.62,2.59l3.62.85a77.3,77.3,0,0,1,15.21,4.88,26.06,26.06,0,0,1,10.19,7.79q3.69,4.81,3.68,12.55a23.28,23.28,0,0,1-3.92,13.39,26,26,0,0,1-11,9A39.56,39.56,0,0,1,286,142.67Z"/><path class="cls-4" d="M345.58,142.67a27.09,27.09,0,0,1-11-2.18,18.23,18.23,0,0,1-7.81-6.28,17.13,17.13,0,0,1-2.87-10.09,16.42,16.42,0,0,1,2.87-9.87,17.73,17.73,0,0,1,7.93-6,30.29,30.29,0,0,1,11.51-2.06H363v-3.52a10.22,10.22,0,0,0-2.82-7.46q-2.82-2.86-8.81-2.87c-3.91,0-6.87.92-8.86,2.76a13.15,13.15,0,0,0-3.94,7.1l-12.44-4.11a24,24,0,0,1,4.52-8.34,22.08,22.08,0,0,1,8.28-6,31.18,31.18,0,0,1,12.68-2.29q11.39,0,17.9,5.69t6.52,16.5v22.78c0,2.34,1.09,3.52,3.29,3.52h4.93v12.8H374.7a10.24,10.24,0,0,1-7.31-3.11,9,9,0,0,1-2.32-6.4v-.24h-2a20.43,20.43,0,0,1-2.46,4,14,14,0,0,1-5.34,4.05A22.8,22.8,0,0,1,345.58,142.67Zm2.23-11a15.65,15.65,0,0,0,10.92-3.82A13.13,13.13,0,0,0,363,117.54v-1.17H347a12.11,12.11,0,0,0-7.05,1.87,6.31,6.31,0,0,0-2.7,5.52,6.86,6.86,0,0,0,2.82,5.7Q342.88,131.64,347.81,131.63Z"/><path class="cls-4" d="M392.15,142.67V81.38h14v7.07h2.11a9.73,9.73,0,0,1,4.59-5.58,16,16,0,0,1,7.69-1.74H428V93.78h-7.69a14.92,14.92,0,0,0-10.05,3.29c-2.57,2.19-3.85,5.57-3.85,10.11v35.49Z"/><path class="cls-4" d="M463.23,142.67a33.23,33.23,0,0,1-15.56-3.58,26.65,26.65,0,0,1-10.8-10.22A30.55,30.55,0,0,1,432.93,113v-1.88a30.93,30.93,0,0,1,3.94-16,26.11,26.11,0,0,1,10.8-10.21,33.57,33.57,0,0,1,15.56-3.52,33.23,33.23,0,0,1,15.5,3.52,26.26,26.26,0,0,1,10.74,10.21,31,31,0,0,1,3.93,16V113a30.65,30.65,0,0,1-3.93,15.91,26.81,26.81,0,0,1-10.74,10.22A32.9,32.9,0,0,1,463.23,142.67Zm0-12a16.25,16.25,0,0,0,12.09-4.75q4.69-4.75,4.7-13.33v-1.18q0-8.57-4.7-13.32a17.75,17.75,0,0,0-24.19,0q-4.69,4.76-4.69,13.32v1.18q0,8.56,4.69,13.33A16.27,16.27,0,0,0,463.23,130.69Z"/><path class="cls-4" d="M529.18,142.67q-11.28,0-18.56-4.93t-8.8-14.45l12.44-3.17a15.35,15.35,0,0,0,2.94,7,11.42,11.42,0,0,0,5.22,3.64,21.05,21.05,0,0,0,6.76,1.05c3.68,0,6.43-.66,8.27-2a6,6,0,0,0,2.76-5.05,5.07,5.07,0,0,0-2.64-4.7,27.29,27.29,0,0,0-8-2.58l-3.64-.59A56.64,56.64,0,0,1,515,113.72a20.14,20.14,0,0,1-7.93-5.63,13.74,13.74,0,0,1-3-9.1q0-8.46,6.28-13t16.5-4.58q9.74,0,16.08,4.34a19.64,19.64,0,0,1,8.22,11.62l-12.44,3.76c-.63-3.29-2-5.61-4.11-7a14,14,0,0,0-7.75-2.06q-4.7,0-7.22,1.64a5.29,5.29,0,0,0-2.53,4.7,5,5,0,0,0,2.59,4.58,20,20,0,0,0,6.92,2.23l3.64.71a73.51,73.51,0,0,1,11.69,3,19.26,19.26,0,0,1,8.27,5.4q3.06,3.52,3.06,9.51,0,9-6.52,13.91T529.18,142.67Z"/></svg>